<?xml version="1.0" encoding="utf-8"?>
<!-- Generator: Adobe Illustrator 24.0.1, SVG Export Plug-In . SVG Version: 6.00 Build 0)  -->
<svg version="1.1" id="Capa_1" xmlns="http://www.w3.org/2000/svg" xmlns:xlink="http://www.w3.org/1999/xlink" x="0px" y="0px"
	 viewBox="0 0 512 512" style="enable-background:new 0 0 512 512;" xml:space="preserve">
<style type="text/css">
	.st0{fill:#DAD9D8;}
	.st1{opacity:0.2;fill:#5BEFA1;}
	.st2{fill:#5BEFA1;}
	.st3{fill:#26AA65;}
	.st4{fill:#056B39;}
	.st5{fill:#DCFDEE;}
	.st6{fill:#FFFFFF;}
</style>
<g>
	<path class="st0" d="M461.2,27.4c-63.8-38-146.3-35.9-208.9,3c-35.2,21.9-62.4,53.4-93.2,80.6c-27,23.8-58.4,40.8-86.4,63.2
		c-101.2,81.4-91.6,301,51,330.1c61.8,12.6,146.2,16.7,182.5-43.6c34.6-57.5,46.2-116.4,113.9-146.9c23.6-10.6,63-10.1,78.9-33.5
		c20.2-29.4-4.9-60-18.2-85.7c-17.2-33.1-20.8-65.7-8.7-101.2C482.4,63.2,489.7,49.6,461.2,27.4L461.2,27.4z"/>
</g>
<g>
	<path class="st1" d="M465.3,189.5c0-31.9-26-57.9-57.9-57.9h-76.9c-26.7,0-49.3,18.2-55.9,42.9h-37.1
		c-6.6-24.7-29.2-42.9-55.9-42.9h-76.9c-31.9,0-57.9,26-57.9,57.9c0,20.7,10.9,38.8,27.2,49.1c-11.1,14.7-17.6,32.9-17.6,52.8v120.3
		c0,5.5,4.5,10,10,10h91c5.5,0,10-4.5,10-10v-23.3h36.9c5.5,0,9.7-4.9,8.8-10.3l-6-36.5h15.7c4.9,0,8.9-4,8.9-8.9v-41.2
		c0-20.1-6.8-38.7-18.2-53.5c11.6-7.7,20.3-19.5,24.1-33.3h37.1c3.7,13.8,12.4,25.6,24.1,33.3c-11.4,14.8-18.2,33.4-18.2,53.5v41.2
		c0,4.9,4,8.9,8.9,8.9H305l-6,36.5c-0.9,5.4,3.3,10.3,8.8,10.3h36.9v23.3c0,5.5,4.5,10,10,10h91c5.5,0,10-4.5,10-10V291.4
		c0-19.8-6.6-38.1-17.6-52.8C454.4,228.3,465.3,210.2,465.3,189.5L465.3,189.5z M189.3,216.3c-13.2-8-28.8-12.7-45.4-12.7l0,0
		c-16.8,0-32.6,4.8-45.9,13c-12.2-3-21.3-14-21.3-27.1c0-15.4,12.5-27.9,27.9-27.9h76.9c9.9,0,18.6,5.2,23.5,12.9h-2.5
		c-8.3,0-15,6.7-15,15s6.7,15,15,15h2.5C201.4,210.2,195.9,214.4,189.3,216.3L189.3,216.3z M309.5,174.5H307
		c5-7.8,13.6-12.9,23.5-12.9h76.9c15.4,0,27.9,12.5,27.9,27.9c0,13.1-9.1,24.1-21.3,27.1c-13.4-8.2-29.1-13-45.9-13
		c-16.6,0-32.2,4.6-45.4,12.7c-6.6-1.9-12.1-6.2-15.7-11.8h2.5c8.3,0,15-6.7,15-15C324.5,181.3,317.8,174.5,309.5,174.5L309.5,174.5
		z"/>
	<g>
		<path class="st2" d="M407.4,223.4h-76.9c-31.9,0-57.9-26-57.9-57.9s26-57.9,57.9-57.9h76.9c31.9,0,57.9,26,57.9,57.9
			C465.3,197.5,439.3,223.4,407.4,223.4z M330.5,137.6c-15.4,0-27.9,12.5-27.9,27.9s12.5,27.9,27.9,27.9h76.9
			c15.4,0,27.9-12.5,27.9-27.9s-12.5-27.9-27.9-27.9H330.5z"/>
	</g>
	<path class="st3" d="M302.6,165.5c0,12.8,8.6,23.5,20.3,26.9c-4,2-8.6,3.1-13.4,3.1H281c-5.3-8.8-8.4-19-8.4-30H302.6z"/>
	<g>
		<g>
			<g>
				<path class="st3" d="M368.1,179.7c48.4,0,87.7,39.3,87.7,87.7v120.3c0,5.5-4.5,10-10,10h-91c-5.5,0-10-4.5-10-10v-23.3h-36.9
					c-5.5,0-9.7-4.9-8.8-10.3l6-36.5h-15.7c-4.9,0-8.9-4-8.9-8.9v-41.2C280.4,218.9,319.6,179.7,368.1,179.7L368.1,179.7z"/>
				<g>
					<g>
						<g>
							<path class="st2" d="M143.9,179.7c-48.4,0-87.7,39.3-87.7,87.7v120.3c0,5.5,4.5,10,10,10h91c5.5,0,10-4.5,10-10v-23.3h36.9
								c5.5,0,9.7-4.9,8.8-10.3l-6-36.5h15.7c4.9,0,8.9-4,8.9-8.9v-41.2C231.6,218.9,192.4,179.7,143.9,179.7L143.9,179.7z"/>
							<path class="st2" d="M79.7,207.7c-5.4,5.9-10.1,12.5-13.8,19.6c11.2,7.1,24.5,11.1,38.7,11.1h76.9c14.8,0,28.5-4.4,40-12
								c-3.6-6.9-8.1-13.2-13.4-18.8L79.7,207.7z"/>
						</g>
					</g>
				</g>
			</g>
		</g>
		<path class="st4" d="M307.1,423.2c-1.3,0-2.6-0.5-3.5-1.5l-11-11c-2-2-2-5.1,0-7.1l11-11c2-2,5.1-2,7.1,0l11,11c2,2,2,5.1,0,7.1
			l-11,11C309.7,422.7,308.4,423.2,307.1,423.2z M303.2,407.2l3.9,3.9l3.9-3.9l-3.9-3.9L303.2,407.2z"/>
		<path class="st2" d="M177.8,75c-2.8,0-5-2.2-5-5c0-3.3-2.7-6-6-6c-2.8,0-5-2.2-5-5s2.2-5,5-5c3.3,0,6-2.7,6-6c0-2.8,2.2-5,5-5
			s5,2.2,5,5c0,3.3,2.7,6,6,6c2.8,0,5,2.2,5,5s-2.2,5-5,5c-3.3,0-6,2.7-6,6C182.8,72.8,180.6,75,177.8,75z"/>
		<path class="st4" d="M367,453c-2.8,0-5-2.2-5-5c0-3.3-2.7-6-6-6c-2.8,0-5-2.2-5-5s2.2-5,5-5c3.3,0,6-2.7,6-6c0-2.8,2.2-5,5-5
			s5,2.2,5,5c0,3.3,2.7,6,6,6c2.8,0,5,2.2,5,5s-2.2,5-5,5c-3.3,0-6,2.7-6,6C372,450.8,369.8,453,367,453z"/>
	</g>
	<g>
		<path class="st3" d="M181.5,223.4h-76.9c-31.9,0-57.9-26-57.9-57.9s26-57.9,57.9-57.9h76.9c31.9,0,57.9,26,57.9,57.9
			C239.4,197.5,213.5,223.4,181.5,223.4z M104.6,137.6c-15.4,0-27.9,12.5-27.9,27.9s12.5,27.9,27.9,27.9h76.9
			c15.4,0,27.9-12.5,27.9-27.9s-12.5-27.9-27.9-27.9H104.6z"/>
	</g>
	<path class="st2" d="M239.4,165.5c0,11-3.1,21.3-8.4,30h-28.6c-4.8,0-9.3-1.1-13.4-3.1c11.7-3.3,20.3-14.1,20.3-26.9H239.4z"/>
	<path class="st5" d="M309.5,180.5h-107c-8.3,0-15-6.7-15-15s6.7-15,15-15h107c8.3,0,15,6.7,15,15S317.8,180.5,309.5,180.5z"/>
	<path class="st3" d="M256,99c-2.8,0-5-2.2-5-5c0-3.3-2.7-6-6-6c-2.8,0-5-2.2-5-5s2.2-5,5-5c3.3,0,6-2.7,6-6c0-2.8,2.2-5,5-5
		c2.8,0,5,2.2,5,5c0,3.3,2.7,6,6,6c2.8,0,5,2.2,5,5s-2.2,5-5,5c-3.3,0-6,2.7-6,6C261,96.8,258.8,99,256,99z"/>
	<path class="st2" d="M143.9,451.3c-1.3,0-2.6-0.5-3.5-1.5l-11-11c-2-2-2-5.1,0-7.1l11-11c2-2,5.1-2,7.1,0l11,11c2,2,2,5.1,0,7.1
		l-11,11C146.5,450.8,145.2,451.3,143.9,451.3z M140,435.3l3.9,3.9l3.9-3.9l-3.9-3.9L140,435.3z"/>
</g>
<path class="st4" d="M470.3,165.5c0-34.7-28.2-62.9-62.9-62.9h-76.9c-26.9,0-51.1,17.5-59.6,42.9h-29.7
	c-8.6-25.7-32.4-42.9-59.6-42.9h-76.9c-34.7,0-62.9,28.2-62.9,62.9c0,20.5,9.9,38.8,25.2,50.3c-10.2,15.3-15.6,33-15.6,51.5v51.3
	c0,2.8,2.2,5,5,5s5-2.2,5-5v-51.3c0-16.6,4.9-32.5,14.1-46.1c8.8,4.6,18.7,7.3,29.3,7.3h76.9c10.9,0,21.3-2.9,30.5-8
	c9.5,13.8,14.6,30,14.6,46.9v41.3c0,2.2-1.8,3.9-3.9,3.9H193c-2.8,0-5,2.2-5,5s2.2,5,5,5h10l2,12c-32.6-0.7-46.1-7.5-46.4-7.6
	c-2.4-1.3-5.4-0.4-6.7,2.1s-0.4,5.5,2,6.8c0.7,0.3,15.8,8.2,52.7,8.8l1.7,10.3c0.3,1.5-0.4,2.6-0.9,3.2c-0.4,0.5-1.4,1.4-3,1.4h-37
	c-2.8,0-5,2.2-5,5v23.3c0,2.8-2.2,5-5,5h-91c-2.8,0-5-2.3-5-5v-35.3c0-2.8-2.2-5-5-5s-5,2.2-5,5v35.3c0,8.3,6.7,15,15,15h91
	c8.3,0,15-6.7,15-15v-18.3h32c4.1,0,8-1.8,10.6-4.9s3.8-7.2,3.1-11.2l-5.1-30.7h9.8c7.7,0,13.9-6.2,13.9-13.9v-41.3
	c0-18.9-5.6-37-16.3-52.4c9.5-7.4,16.8-17.6,20.8-29.4h29.7c3.9,11.6,11.2,21.9,20.8,29.4c-10.3,14.9-16.3,33-16.3,52.4v41.3
	c0,7.7,6.2,13.9,13.9,13.9h9.8l-5.1,30.7c-0.7,4,0.5,8.1,3.1,11.2s6.5,4.9,10.6,4.9h32v18.3c0,8.3,6.7,15,15,15h91
	c8.3,0,15-6.7,15-15V267.3c0-19-5.8-36.8-15.6-51.5C460.9,204,470.3,185.4,470.3,165.5z M330.5,112.6h76.9
	c29.2,0,52.9,23.7,52.9,52.9c0,16.7-7.9,32.3-21.2,42.3c-4.4-5.2-9.4-10-14.8-14.1c9.8-5.9,16-16.5,16-28.2
	c0-18.1-14.8-32.9-32.9-32.9h-5.3c-2.8,0-5,2.2-5,5s2.2,5,5,5h5.3c12.6,0,22.9,10.3,22.9,22.9c0,9.7-6.2,18.4-15.3,21.6
	c-0.1,0-0.2,0.1-0.3,0.1c-13.7-8-29.6-12.6-46.6-12.6c-16.7,0-32.4,4.4-45.9,12.2c-1.8-0.7-3.6-1.6-5.1-2.8
	c7.3-3,12.5-10.2,12.5-18.5c0-8.4-5.2-15.5-12.5-18.5c3.9-2.8,8.6-4.4,13.4-4.4h38c2.8,0,5-2.2,5-5s-2.2-5-5-5h-38
	c-10.2,0-19.9,4.8-26.1,12.9h-22.9C289.6,125.9,309,112.6,330.5,112.6z M181.5,218.5L181.5,218.5h-76.9c-29.2,0-52.9-23.7-52.9-52.9
	s23.7-52.9,52.9-52.9h76.9c21.8,0,40.9,13,49,32.9h-22.9c0-0.1-0.1-0.1-0.1-0.2c-6.3-8.1-15.8-12.8-26-12.8h-76.9
	c-18.1,0-32.9,14.8-32.9,32.9s14.8,32.9,32.9,32.9h76.9c10.2,0,19.9-4.8,26.1-12.9h22.9C222.4,205.1,203,218.5,181.5,218.5z
	 M195,184c-1.6,1.1-3.3,2.1-5.1,2.8c-13.9-8-29.8-12.2-45.9-12.2c-16.4,0-32.5,4.4-46.6,12.6c-9.1-3.1-15.6-11.6-15.6-21.7
	c0-12.6,10.3-22.9,22.9-22.9h76.9c4.9,0,9.6,1.6,13.5,4.4c-7.3,3-12.5,10.1-12.5,18.5C182.5,173.9,187.7,181.1,195,184z
	 M168.6,188.4h-49.4c8-2.5,16.3-3.8,24.7-3.8C152.3,184.7,160.7,186,168.6,188.4z M202.5,175.5c-5.5,0-10-4.5-10-10s4.5-10,10-10
	h107c5.5,0,10,4.5,10,10s-4.5,10-10,10H202.5z M281.5,185.5h22.9c2.3,3,5.1,5.6,8.2,7.6c-5.5,4.1-10.4,8.8-14.9,13.9
	C290.6,201.4,285,193.9,281.5,185.5z M450.7,267.3v120.3c0,2.8-2.2,5-5,5h-91c-2.8,0-5-2.2-5-5v-23.3c0-2.8-2.2-5-5-5h-37
	c-1.6,0-2.5-0.9-3-1.4c-0.4-0.5-1.1-1.6-0.9-3.2l0.8-5l0,0l0.9-5.3c36.9-0.6,52.1-8.4,52.7-8.8c2.4-1.3,3.3-4.3,2-6.8
	c-1.3-2.4-4.3-3.3-6.8-2c-0.1,0.1-13.2,6.8-46.3,7.6l1-6.2l0.9-5.8h10c2.8,0,5-2.2,5-5s-2.2-5-5-5h-29.9c-2.1,0-3.9-1.7-3.9-3.9
	v-41.3c0-45.6,37.1-82.7,82.7-82.7S450.7,221.8,450.7,267.3z"/>
<path class="st6" d="M347.8,268c-2.8,0-5,2.2-5,5v3.1c0,2.8,2.2,5,5,5s5-2.2,5-5V273C352.8,270.3,350.6,268,347.8,268z"/>
<path class="st6" d="M383.5,267.8c-2,2-2,5.1,0,7.1s5.1,2,7.1,0c7.8-7.8,20.4-7.8,28.1,0s7.8,20.4,0,28.1s-20.4,7.8-28.1,0
	c-2-2-5.1-2-7.1,0s-2,5.1,0,7.1c5.8,5.8,13.5,8.7,21.1,8.7c7.7,0,15.3-2.9,21.1-8.7c11.7-11.7,11.7-30.6,0-42.3
	C414.2,256.1,395.2,256.1,383.5,267.8L383.5,267.8z"/>
<path class="st4" d="M172.2,276.1V273c0-2.8-2.2-5-5-5s-5,2.2-5,5v3.1c0,2.8,2.2,5,5,5S172.2,278.9,172.2,276.1z"/>
<path class="st4" d="M121.4,274.9c2,2,5.1,2,7.1,0s2-5.1,0-7.1c-11.7-11.7-30.6-11.7-42.3,0s-11.7,30.6,0,42.3
	c5.8,5.8,13.5,8.7,21.1,8.7s15.3-2.9,21.1-8.7c2-2,2-5.1,0-7.1s-5.1-2-7.1,0c-7.8,7.8-20.4,7.8-28.1,0c-7.8-7.8-7.8-20.4,0-28.1
	S113.6,267.1,121.4,274.9L121.4,274.9z"/>
<path class="st6" d="M304.7,349.8"/>
<path class="st6" d="M307.3,334.5c33.1-0.7,46.2-7.5,46.3-7.6c2.4-1.3,5.5-0.4,6.8,2s0.4,5.5-2,6.8c-0.7,0.3-15.8,8.2-52.7,8.8"/>
</svg>
