<?xml version="1.0" encoding="utf-8"?>
<!-- Generator: Adobe Illustrator 24.0.1, SVG Export Plug-In . SVG Version: 6.00 Build 0)  -->
<svg version="1.1" id="Capa_1" xmlns="http://www.w3.org/2000/svg" xmlns:xlink="http://www.w3.org/1999/xlink" x="0px" y="0px"
	 viewBox="0 0 512 512" style="enable-background:new 0 0 512 512;" xml:space="preserve">
<style type="text/css">
	.st0{fill:#DAD9D8;}
	.st1{opacity:0.15;}
	.st2{fill:#5BEFA1;}
	.st3{opacity:0.2;fill:#056B39;}
	.st4{fill:#056B39;}
	.st5{fill:#FFFFFF;}
	.st6{fill:#6583FE;}
	.st7{fill:#2EBF70;}
</style>
<path class="st0" d="M170.1,0.4C102,4.8,35.9,61.5,58.5,135.5c18.3,59.7,84.7,87.7,134.7,115.7c47.9,26.8,98.6,60.2,112,117.2
	c9.2,39.2-2.1,84.9,22,117.2c42.3,56.7,124.1,13.6,130.3-47.3c5.2-50.5-31.5-94.7-65.8-132.2c-33.3-36.3-70.5-71.4-100-110.8
	c-27.3-36.6-41.6-82-5.4-118.2c8.1-8.1,17.8-16.5,14.9-29.7C291.4,3.9,203.4-1.8,170.1,0.4L170.1,0.4z"/>
<g class="st1">
	<path class="st2" d="M401.7,133.7l21.3,4.9c0.4,0.1,0.8,0.1,1.1,0.1c1.9,0,3.7-1.1,4.6-2.9l1.4-3.1L451,137
		c2.7,0.6,5.3-1.2,5.9-3.9s-1.2-5.3-3.9-5.9l-24.8-5.1c-2.3-0.5-4.6,0.7-5.5,2.8l-1.4,3l-17.3-4c-2.7-0.6-5.4,1.1-6,3.7
		C397.3,130.4,399,133.1,401.7,133.7L401.7,133.7z"/>
	<path class="st2" d="M402.8,109.1c0.9,0,1.8-0.2,2.6-0.8L424,96.7c2-1.3,2.9-3.8,2-6l-1.2-3.2l17.8-11.8c2.3-1.5,2.9-4.6,1.4-6.9
		s-4.6-2.9-6.9-1.4l-21.1,14c-1.9,1.3-2.7,3.7-1.9,5.9l1.1,3.1l-15.1,9.4c-2.3,1.5-3.1,4.5-1.6,6.9
		C399.5,108.2,401.1,109.1,402.8,109.1L402.8,109.1z"/>
	<path class="st2" d="M416,179.4l21.1,14c0.8,0.6,1.8,0.8,2.8,0.8c1.6,0,3.2-0.8,4.2-2.2c1.5-2.3,0.9-5.4-1.4-6.9l-17.8-11.8
		l1.2-3.2c0.8-2.2,0-4.7-2-6l-18.5-11.6c-2.3-1.5-5.4-0.8-6.9,1.6c-1.5,2.3-0.8,5.4,1.6,6.9l15.1,9.4l-1.1,3.1
		C413.3,175.7,414.1,178.2,416,179.4L416,179.4z"/>
	<path class="st2" d="M114.5,414.3l-21.3-4.9c-2.3-0.5-4.7,0.6-5.7,2.8l-1.4,3.1L65.2,411c-2.7-0.6-5.3,1.2-5.9,3.9s1.2,5.3,3.9,5.9
		l24.8,5.1c0.3,0.1,0.7,0.1,1,0.1c1.9,0,3.7-1.1,4.6-2.9l1.4-3l17.3,4c2.7,0.6,5.4-1.1,6-3.7C118.8,417.6,117.1,414.9,114.5,414.3
		L114.5,414.3z"/>
	<path class="st2" d="M110.7,439.7l-18.5,11.6c-2,1.3-2.9,3.8-2,6l1.2,3.2l-17.8,11.8c-2.3,1.5-2.9,4.6-1.4,6.9
		c1,1.5,2.6,2.2,4.2,2.2c0.9,0,1.9-0.3,2.8-0.8l21.1-14c1.9-1.3,2.7-3.7,1.9-5.9l-1.1-3.1l15.1-9.4c2.3-1.5,3.1-4.5,1.6-6.9
		C116.1,438.9,113,438.2,110.7,439.7L110.7,439.7z"/>
	<path class="st2" d="M100.1,368.6l-21.1-14c-2.3-1.5-5.4-0.9-6.9,1.4s-0.9,5.4,1.4,6.9l17.8,11.8l-1.2,3.2c-0.8,2.2,0,4.7,2,6
		l18.5,11.6c0.8,0.5,1.7,0.8,2.6,0.8c1.7,0,3.3-0.8,4.2-2.4c1.5-2.3,0.8-5.4-1.6-6.9l-15.1-9.4l1.1-3.1
		C102.9,372.3,102.1,369.8,100.1,368.6L100.1,368.6z"/>
	<path class="st3" d="M380.2,269h-20.8v-2c0-8.3-6.7-15-15-15H171.7c-8.3,0-15,6.7-15,15v2h-20.8c-36.8,0-66.8-30-66.8-66.8
		s30-66.8,66.8-66.8h24.6v1.4c0,8.3,6.7,15,15,15H187v12.9c0,7.1,4.8,13.2,11.8,14.8c0,0,158.1,36.9,159.4,36.9
		c20,0,25.3-56.3,25.3-86s-5.3-86-25.3-86l0,0l0,0c-1.4,0-159.4,36.9-159.4,36.9C191.9,82.9,187,89,187,96.1V109h-11.5
		c-8.3,0-15,6.7-15,15v1.4h-24.6c-42.3,0-76.8,34.4-76.8,76.8S93.6,279,135.9,279h20.8v2c0,8.3,6.7,15,15,15h172.8
		c8.3,0,15-6.7,15-15v-2h20.8c36.8,0,66.8,30,66.8,66.8s-30,66.8-66.8,66.8h-24.6v-1.4c0-8.3-6.7-15-15-15h-11.5v-12.9
		c0-7.1-4.8-13.2-11.8-14.8c0,0-158-36.9-159.4-36.9c0,0,0,0-0.1,0l0,0c-20,0-25.3,56.3-25.3,86s5.3,86,25.3,86
		c1.4,0,159.4-36.9,159.4-36.9c6.9-1.6,11.8-7.7,11.8-14.8V439h11.5c8.3,0,15-6.7,15-15v-1.4h24.6c42.3,0,76.8-34.4,76.8-76.8
		S422.5,269,380.2,269L380.2,269z"/>
</g>
<g>
	<g>
		<g>
			<g>
				<path class="st4" d="M210.2,122.8h-34.8c-5.5,0-10-4.5-10-10V100c0-5.5,4.5-10,10-10h34.8V122.8z"/>
				<g>
					<path class="st5" d="M192,72.1v68.6c0,4.8,3.3,8.9,7.9,10l158.3,36.7v-162L199.9,62.2C195.3,63.2,192,67.4,192,72.1L192,72.1z"
						/>
					<g>
						<path class="st2" d="M250.7,64.5c0,12.1-9.8,21.9-21.9,21.9s-21.9-9.8-21.9-21.9c0-1.4,0.1-2.8,0.4-4.1l39-9.1
							C249.1,55.1,250.7,59.6,250.7,64.5z"/>
						<path class="st2" d="M332.7,37.5c0,12.1-9.8,21.9-21.9,21.9c-10.8,0-19.7-7.8-21.5-18l42.6-9.9
							C332.4,33.4,332.7,35.5,332.7,37.5z"/>
						<path class="st2" d="M252.9,147.3c0,5.5-2.1,10.6-5.5,14.5l-37.5-8.7c-0.5-1.8-0.8-3.8-0.8-5.8c0-12.1,9.8-21.9,21.9-21.9
							C243.1,125.4,252.9,135.2,252.9,147.3z"/>
						<circle class="st2" cx="332.7" cy="143.6" r="21.9"/>
					</g>
					<ellipse class="st6" cx="358.2" cy="106.4" rx="20.3" ry="81"/>
					<path class="st7" d="M378.5,106.4c0,44.8-9.1,81-20.3,81c-3.7,0-7.2-3.9-10.1-10.9c-6.1-14-10.1-40.2-10.1-70.2
						s4.1-56.2,10.1-70.2c3-6.9,6.4-10.9,10.1-10.9C369.4,25.4,378.5,61.7,378.5,106.4z"/>
					<ellipse class="st2" cx="348.1" cy="106.4" rx="10.1" ry="70.2"/>
					<circle class="st2" cx="280" cy="103.5" r="21.9"/>
				</g>
			</g>
		</g>
	</g>
	<g>
		<g>
			<path class="st2" d="M305.9,377.2h34.8c5.5,0,10,4.5,10,10V400c0,5.5-4.5,10-10,10h-34.8V377.2z"/>
			<g>
				<path class="st5" d="M324.1,427.9v-68.6c0-4.8-3.3-8.9-7.9-10l-158.3-36.7v162.1L316.2,438C320.8,436.8,324.1,432.6,324.1,427.9
					z"/>
				<g>
					<path class="st2" d="M265.4,435.5c0-12.1,9.8-21.9,21.9-21.9s21.9,9.8,21.9,21.9c0,1.4-0.1,2.8-0.4,4.1l-39,9.1
						C267.1,444.9,265.4,440.4,265.4,435.5L265.4,435.5z"/>
					<path class="st2" d="M183.4,462.5c0-12.1,9.8-21.9,21.9-21.9c10.8,0,19.7,7.8,21.5,18l-42.6,9.9
						C183.7,466.6,183.4,464.5,183.4,462.5L183.4,462.5z"/>
					<path class="st2" d="M263.2,352.7c0-5.5,2.1-10.6,5.5-14.5l37.5,8.7c0.5,1.8,0.8,3.8,0.8,5.8c0,12.1-9.8,21.9-21.9,21.9
						S263.2,364.8,263.2,352.7L263.2,352.7z"/>
					<circle class="st2" cx="183.4" cy="356.4" r="21.9"/>
				</g>
				<ellipse class="st6" cx="157.9" cy="393.6" rx="20.3" ry="81"/>
				<path class="st7" d="M137.6,393.6c0-44.8,9.1-81,20.3-81c3.7,0,7.2,4,10.1,10.9c6.1,14,10.1,40.2,10.1,70.2s-4.1,56.2-10.1,70.2
					c-3,6.9-6.4,10.9-10.1,10.9C146.7,474.6,137.6,438.3,137.6,393.6z"/>
				<ellipse class="st2" cx="168" cy="393.6" rx="10.1" ry="70.2"/>
				<ellipse class="st2" cx="236.1" cy="396.5" rx="21.9" ry="21.9"/>
			</g>
		</g>
	</g>
</g>
<path class="st2" d="M344.4,267H171.7c-5.5,0-10-4.5-10-10v-14c0-5.5,4.5-10,10-10h172.8c5.5,0,10,4.5,10,10v14
	C354.4,262.5,350,267,344.4,267z"/>
<path class="st2" d="M452,249c-2.8,0-5-2.2-5-5c0-3.3-2.7-6-6-6c-2.8,0-5-2.2-5-5s2.2-5,5-5c3.3,0,6-2.7,6-6c0-2.8,2.2-5,5-5
	s5,2.2,5,5c0,3.3,2.7,6,6,6c2.8,0,5,2.2,5,5s-2.2,5-5,5c-3.3,0-6,2.7-6,6C457,246.8,454.7,249,452,249z"/>
<path class="st4" d="M129.3,63.6c-2.8,0-5-2.2-5-5c0-3.3-2.7-6-6-6c-2.8,0-5-2.2-5-5s2.2-5,5-5c3.3,0,6-2.7,6-6c0-2.8,2.2-5,5-5
	s5,2.2,5,5c0,3.3,2.7,6,6,6c2.8,0,5,2.2,5,5s-2.2,5-5,5c-3.3,0-6,2.7-6,6C134.3,61.4,132.1,63.6,129.3,63.6z"/>
<path class="st4" d="M60,314.7c-2.8,0-5-2.2-5-5c0-3.3-2.7-6-6-6c-2.8,0-5-2.2-5-5s2.2-5,5-5c3.3,0,6-2.7,6-6c0-2.8,2.2-5,5-5
	s5,2.2,5,5c0,3.3,2.7,6,6,6c2.8,0,5,2.2,5,5s-2.2,5-5,5c-3.3,0-6,2.7-6,6C65,312.4,62.8,314.7,60,314.7z"/>
<path class="st4" d="M378.5,470.5c-1.3,0-2.6-0.5-3.5-1.5l-11-11c-2-2-2-5.1,0-7.1l11-11c2-2,5.1-2,7.1,0l11,11c2,2,2,5.1,0,7.1
	l-11,11C381.1,470,379.8,470.5,378.5,470.5z M374.6,454.5l3.9,3.9l3.9-3.9l-3.9-3.9L374.6,454.5z"/>
<path class="st4" d="M389.5,328.5c-1.3,0-2.6-0.5-3.5-1.5l-11-11c-2-2-2-5.1,0-7.1l11-11c2-2,5.1-2,7.1,0l11,11c2,2,2,5.1,0,7.1
	l-11,11C392.1,328,390.8,328.5,389.5,328.5z M385.6,312.5l3.9,3.9l3.9-3.9l-3.9-3.9L385.6,312.5z"/>
<g>
	<path class="st4" d="M401.7,109.7l21.3,4.9c0.4,0.1,0.8,0.1,1.1,0.1c1.9,0,3.7-1.1,4.6-2.9l1.4-3.1L451,113
		c2.7,0.6,5.3-1.2,5.9-3.9s-1.2-5.3-3.9-5.9l-24.8-5.1c-2.3-0.5-4.6,0.7-5.5,2.8l-1.4,3l-17.3-4c-2.7-0.6-5.4,1.1-6,3.7
		C397.3,106.4,399,109.1,401.7,109.7L401.7,109.7z"/>
	<path class="st4" d="M402.8,85.1c0.9,0,1.8-0.2,2.6-0.8L424,72.7c2-1.3,2.9-3.8,2-6l-1.2-3.2l17.8-11.8c2.3-1.5,2.9-4.6,1.4-6.9
		c-1.5-2.3-4.6-2.9-6.9-1.4l-21.1,14c-1.9,1.3-2.7,3.7-1.9,5.9l1.1,3.1l-15.1,9.4c-2.3,1.5-3.1,4.5-1.6,6.9
		C399.5,84.2,401.1,85.1,402.8,85.1L402.8,85.1z"/>
	<path class="st4" d="M424,140.1l-18.5-11.6c-2.3-1.5-5.4-0.8-6.9,1.6c-1.5,2.3-0.8,5.4,1.6,6.9l15.1,9.4l-1.1,3.1
		c-0.8,2.2,0,4.6,1.9,5.9l21.1,14c0.8,0.6,1.8,0.8,2.8,0.8c1.6,0,3.2-0.8,4.2-2.2c1.5-2.3,0.9-5.4-1.4-6.9L425,149.3l1.2-3.2
		C426.9,143.9,426,141.4,424,140.1L424,140.1z"/>
	<path class="st4" d="M158.5,469.3l-0.9,0.2c-1.1-0.5-4.4-3.6-7.8-14.8c-3.4-11.3-5.9-27.3-6.8-44.8c-0.1-2.8-2.5-4.9-5.3-4.7
		c-2.8,0.1-4.9,2.5-4.7,5.3c0.6,11.5,4.6,69.1,24.8,69.2l0,0c0,0,0,0,0.1,0c1.3,0,2.6-0.3,3.8-0.8l155.5-36.1
		c6.9-1.6,11.8-7.7,11.8-14.8v-12.9h11.5c8.3,0,15-6.7,15-15v-1.4h24.6c42.3,0,76.8-34.4,76.8-76.8S422.5,245,380.2,245h-20.8v-2
		c0-8.3-6.7-15-15-15H239.2c-2.8,0-5,2.2-5,5s2.2,5,5,5h105.3c2.8,0,5,2.2,5,5v14c0,2.8-2.2,5-5,5H171.7c-2.8,0-5-2.2-5-5v-14
		c0-2.8,2.2-5,5-5h33.8c2.8,0,5-2.2,5-5s-2.2-5-5-5h-33.8c-8.3,0-15,6.7-15,15v2h-20.8c-36.8,0-66.8-30-66.8-66.8s30-66.8,66.8-66.8
		h24.6v1.4c0,8.3,6.7,15,15,15H187v12.9c0,7.1,4.8,13.2,11.8,14.8l155.5,36.1c1.2,0.5,2.5,0.8,3.8,0.8c0,0,0,0,0.1,0l0,0
		c20-0.1,25.2-56.3,25.2-86c0-29.8-5.3-86-25.3-86H358h-0.1c-1.3,0-2.5,0.3-3.7,0.8L198.8,57.3C191.9,58.9,187,65,187,72.1V85h-11.5
		c-8.3,0-15,6.7-15,15v1.4h-24.6c-42.3,0-76.8,34.4-76.8,76.8S93.6,255,135.9,255h20.8v2c0,8.3,6.7,15,15,15h172.8
		c8.3,0,15-6.7,15-15v-2h20.8c36.8,0,66.8,30,66.8,66.8s-30,66.8-66.8,66.8h-24.6v-1.4c0-8.3-6.7-15-15-15h-11.5v-12.9
		c0-7.1-4.8-13.2-11.8-14.8l-155.5-36.1c-1.2-0.5-2.4-0.7-3.7-0.8h-0.1H158c-20.1,0-24.2,57.2-24.8,68.7c-0.1,2.8,2,5.1,4.7,5.3
		c2.8,0.1,5.1-2,5.3-4.7c0.9-17.5,3.3-33.3,6.8-44.5c3.4-11.1,6.7-14.2,7.8-14.7l0.9,0.2c1.6,1.1,5.4,5.8,8.8,19.7
		c3.7,14.9,5.8,34.8,5.8,56.1s-2.1,41.2-5.8,56.1C163.9,463.5,160.1,468.2,158.5,469.3L158.5,469.3z M367.7,50.4
		c3.7,14.9,5.8,34.8,5.8,56.1s-2.1,41.2-5.8,56.1c-3.8,15.1-7.9,19.3-9.2,19.9l-0.9-0.2c-1.6-1.1-5.4-5.8-8.8-19.7
		c-3.7-14.9-5.8-34.8-5.8-56.1s2.1-41.2,5.8-56.1c3.5-13.9,7.2-18.6,8.8-19.7l0.9-0.2C359.8,31,363.9,35.2,367.7,50.4z M197,72.1
		c0-2.4,1.7-4.5,4-5.1l142.7-33.1c-8.2,18.5-10.8,51.9-10.8,72.5s2.5,54,10.8,72.5L201,145.8c-2.4-0.6-4-2.6-4-5.1L197,72.1
		L197,72.1z M170.5,100.1c0-2.8,2.2-5,5-5H187v22.8h-11.5c-2.8,0-5-2.2-5-5V100.1z M340.6,382.2c2.8,0,5,2.2,5,5V400
		c0,2.8-2.2,5-5,5h-11.5v-22.8H340.6z M172.4,321l142.7,33.1c2.4,0.6,4,2.6,4,5.1v68.6c0,2.4-1.7,4.5-4,5.1L172.4,466
		c8.2-18.5,10.8-51.9,10.8-72.5C183.2,372.9,180.6,339.6,172.4,321z"/>
	<path class="st4" d="M114.5,390.3l-21.3-4.9c-2.3-0.5-4.7,0.6-5.7,2.8l-1.4,3.1L65.2,387c-2.7-0.6-5.3,1.2-5.9,3.9
		c-0.6,2.7,1.2,5.3,3.9,5.9l24.8,5.1c0.3,0.1,0.7,0.1,1,0.1c1.9,0,3.7-1.1,4.6-2.9l1.4-3l17.3,4c2.7,0.6,5.4-1.1,6-3.7
		C118.8,393.6,117.1,390.9,114.5,390.3L114.5,390.3z"/>
	<path class="st4" d="M117.6,417.3c-1.5-2.3-4.5-3.1-6.9-1.6l-18.5,11.6c-2,1.3-2.9,3.8-2,6l1.2,3.2l-17.8,11.8
		c-2.3,1.5-2.9,4.6-1.4,6.9c1,1.5,2.6,2.2,4.2,2.2c0.9,0,1.9-0.3,2.8-0.8l21.1-14c1.9-1.3,2.7-3.7,1.9-5.9l-1.1-3.1l15.1-9.4
		C118.3,422.7,119,419.6,117.6,417.3L117.6,417.3z"/>
	<path class="st4" d="M100.1,344.6l-21.1-14c-2.3-1.5-5.4-0.9-6.9,1.4s-0.9,5.4,1.4,6.9l17.8,11.8l-1.2,3.2c-0.8,2.2,0,4.7,2,6
		l18.5,11.6c0.8,0.5,1.7,0.8,2.6,0.8c1.7,0,3.3-0.8,4.2-2.4c1.5-2.3,0.8-5.4-1.6-6.9l-15.1-9.4l1.1-3.1
		C102.9,348.3,102.1,345.8,100.1,344.6L100.1,344.6z"/>
</g>
</svg>
