<?xml version="1.0" encoding="utf-8"?>
<!-- Generator: Adobe Illustrator 24.0.1, SVG Export Plug-In . SVG Version: 6.00 Build 0)  -->
<svg version="1.1" id="Capa_1" xmlns="http://www.w3.org/2000/svg" xmlns:xlink="http://www.w3.org/1999/xlink" x="0px" y="0px"
	 viewBox="0 0 512 512" style="enable-background:new 0 0 512 512;" xml:space="preserve">
<style type="text/css">
	.st0{fill:#DAD9D8;}
	.st1{opacity:0.1;fill:#2626BC;enable-background:new    ;}
	.st2{fill:#1F438F;}
	.st3{fill:#FFFFFF;}
	.st4{fill:#6583FE;}
	.st5{fill:#7FA9F4;}
	.st6{fill:#8399FE;}
</style>
<g>
	<g>
		<path class="st0" d="M461.2,27.4c-63.8-38-146.3-35.9-208.9,3c-35.2,21.9-62.4,53.4-93.2,80.6c-27,23.8-58.4,40.8-86.4,63.2
			c-101.2,81.4-91.6,301,51,330.1c61.8,12.6,146.2,16.7,182.5-43.6c34.6-57.5,46.2-116.4,113.9-146.9c23.6-10.6,63-10.1,78.9-33.5
			c20.2-29.4-4.9-60-18.2-85.7c-17.2-33.1-20.8-65.7-8.7-101.2C482.4,63.2,489.7,49.6,461.2,27.4L461.2,27.4z"/>
	</g>
	<g>
		<path class="st1" d="M375.2,307.3c-41.4,0-76.7,25.7-90.9,62c-0.1,0-0.2-0.1-0.3-0.1l-54.6-16c3.3-9.8,5.1-20.2,5.1-31.1
			c0-25.2-9.6-48.2-25.3-65.5l59.6-40.5c0.1,0,0.1-0.1,0.2-0.2c17.9,22.4,45.4,36.8,76.4,36.8c53.9,0,97.6-43.7,97.6-97.6
			s-43.7-97.6-97.6-97.6s-97.6,43.7-97.6,97.6c0,19.4,5.7,37.5,15.4,52.7h0l-60.3,41c-0.3,0.2-0.6,0.4-0.8,0.7
			c-17.3-15.5-40.2-25-65.2-25c-53.9,0-97.6,43.7-97.6,97.6s43.7,97.6,97.6,97.6c39.5,0,73.6-23.5,88.9-57.3
			c0.2,0.1,0.3,0.2,0.5,0.2l54.9,16.1c-2.3,8.3-3.5,17.1-3.5,26.1c0,53.9,43.7,97.6,97.6,97.6s97.6-43.7,97.6-97.6
			C472.8,351,429.1,307.3,375.2,307.3L375.2,307.3z"/>
		<g>
			<g>
				<g>
					<circle class="st2" cx="345.4" cy="131.1" r="97.6"/>
					<path class="st3" d="M409.1,121.4V205c-17.1,14.8-39.4,23.7-63.8,23.7c-5.8,0-11.5-0.5-17-1.5v-35.3h-26.9c-4,0-7-3.6-6.4-7.5
						l0.9-5.5l1.6-10l1.8-11H288c-3.6,0-6.5-2.9-6.5-6.5v-30c0-35.2,28.5-63.8,63.8-63.8S409.1,86.2,409.1,121.4z"/>
				</g>
				<g>
					<g>
						<path class="st4" d="M337.7,172.3c-0.5,0.3-12.5,6.5-41.7,6.6l1.6-10c25-0.3,35.3-5.4,35.4-5.4c2.4-1.3,5.5-0.3,6.7,2.1
							S340.2,171,337.7,172.3z"/>
					</g>
					<g>
						<path class="st4" d="M330.6,132.8c-2.8,0-5-2.2-5-5v-2.3c0-2.8,2.2-5,5-5s5,2.2,5,5v2.3C335.6,130.5,333.4,132.8,330.6,132.8z
							"/>
					</g>
					<g>
						<path class="st4" d="M372,160.2c-5.9,0-11.8-2.3-16.3-6.8c-2-2-2-5.1,0-7.1c2-2,5.1-2,7.1,0c5.1,5.1,13.4,5.1,18.5,0
							c5.1-5.1,5.1-13.4,0-18.5c-5.1-5.1-13.4-5.1-18.5,0c-2,2-5.1,2-7.1,0c-2-2-2-5.1,0-7.1c9-9,23.7-9,32.7,0c9,9,9,23.7,0,32.7
							C383.8,157.9,377.9,160.2,372,160.2z"/>
					</g>
				</g>
			</g>
			<g>
				<g>
					<circle class="st5" cx="136.8" cy="298.1" r="97.6"/>
					<path class="st3" d="M200.6,288.4V372c-17.1,14.8-39.4,23.7-63.8,23.7c-5.8,0-11.5-0.5-17-1.5v-35.3H92.9c-4,0-7-3.6-6.4-7.5
						l0.9-5.5l1.7-10l1.8-11H79.5c-3.6,0-6.5-2.9-6.5-6.5v-30c0-35.2,28.5-63.8,63.8-63.8S200.6,253.2,200.6,288.4L200.6,288.4z"/>
				</g>
				<g>
					<g>
						<path class="st2" d="M129.2,339.3c-0.5,0.3-12.6,6.5-41.7,6.6l1.7-10c25-0.3,35.3-5.4,35.4-5.4c2.4-1.3,5.5-0.3,6.7,2.1
							S131.6,338,129.2,339.3z"/>
					</g>
					<g>
						<path class="st2" d="M122.1,299.8c-2.8,0-5-2.2-5-5v-2.3c0-2.8,2.2-5,5-5s5,2.2,5,5v2.3C127.1,297.5,124.8,299.8,122.1,299.8z
							"/>
					</g>
					<g>
						<path class="st2" d="M163.4,327.2c-5.9,0-11.8-2.3-16.3-6.8c-2-2-2-5.1,0-7.1c2-2,5.1-2,7.1,0c5.1,5.1,13.4,5.1,18.5,0
							c5.1-5.1,5.1-13.4,0-18.5c-5.1-5.1-13.4-5.1-18.5,0c-2,2-5.1,2-7.1,0c-2-2-2-5.1,0-7.1c9-9,23.7-9,32.7,0c9,9,9,23.7,0,32.7
							C175.3,324.9,169.3,327.2,163.4,327.2L163.4,327.2z"/>
					</g>
				</g>
			</g>
			<g>
				<g>
					<circle class="st2" cx="375.2" cy="380.9" r="97.6"/>
					<path class="st3" d="M439,371.2v83.6c-17.1,14.8-39.4,23.7-63.8,23.7c-5.8,0-11.5-0.5-17-1.5v-35.3h-26.9c-4,0-7-3.6-6.4-7.5
						l0.9-5.5l1.6-10l1.8-11h-11.4c-3.6,0-6.5-2.9-6.5-6.5v-30c0-35.2,28.5-63.8,63.8-63.8S439,335.9,439,371.2L439,371.2z"/>
				</g>
				<g>
					<g>
						<path class="st2" d="M367.6,422.1c-0.5,0.3-12.5,6.5-41.7,6.6l1.6-10c25-0.3,35.3-5.4,35.4-5.4c2.4-1.3,5.5-0.3,6.7,2.1
							S370,420.8,367.6,422.1z"/>
					</g>
					<g>
						<path class="st2" d="M360.5,382.6c-2.8,0-5-2.2-5-5v-2.3c0-2.8,2.2-5,5-5s5,2.2,5,5v2.3C365.5,380.3,363.3,382.6,360.5,382.6z
							"/>
					</g>
					<g>
						<path class="st2" d="M401.8,410c-5.9,0-11.8-2.3-16.3-6.8c-2-2-2-5.1,0-7.1c2-2,5.1-2,7.1,0c5.1,5.1,13.4,5.1,18.5,0
							c5.1-5.1,5.1-13.4,0-18.5c-5.1-5.1-13.4-5.1-18.5,0c-2,2-5.1,2-7.1,0c-2-2-2-5.1,0-7.1c9-9,23.7-9,32.7,0c9,9,9,23.7,0,32.7
							C413.7,407.7,407.8,410,401.8,410z"/>
					</g>
				</g>
			</g>
		</g>
		<path class="st5" d="M155.1,141.6c-2.8,0-5-2.2-5-5c0-3.3-2.7-6-6-6c-2.8,0-5-2.2-5-5s2.2-5,5-5c3.3,0,6-2.7,6-6c0-2.8,2.2-5,5-5
			s5,2.2,5,5c0,3.3,2.7,6,6,6c2.8,0,5,2.2,5,5s-2.2,5-5,5c-3.3,0-6,2.7-6,6C160.1,139.4,157.8,141.6,155.1,141.6z"/>
		<path class="st6" d="M453.8,244.9c-2.8,0-5-2.2-5-5c0-3.3-2.7-6-6-6c-2.8,0-5-2.2-5-5s2.2-5,5-5c3.3,0,6-2.7,6-6c0-2.8,2.2-5,5-5
			s5,2.2,5,5c0,3.3,2.7,6,6,6c2.8,0,5,2.2,5,5s-2.2,5-5,5c-3.3,0-6,2.7-6,6C458.8,242.7,456.5,244.9,453.8,244.9z"/>
		<path class="st5" d="M188,450.6c-2.8,0-5-2.2-5-5c0-3.3-2.7-6-6-6c-2.8,0-5-2.2-5-5s2.2-5,5-5c3.3,0,6-2.7,6-6c0-2.8,2.2-5,5-5
			s5,2.2,5,5c0,3.3,2.7,6,6,6c2.8,0,5,2.2,5,5s-2.2,5-5,5c-3.3,0-6,2.7-6,6C193,448.4,190.8,450.6,188,450.6z"/>
		<path class="st5" d="M192.1,170.6c-1.3,0-2.6-0.5-3.5-1.5l-11-11c-2-2-2-5.1,0-7.1l11-11c2-2,5.1-2,7.1,0l11,11c2,2,2,5.1,0,7.1
			l-11,11C194.6,170.1,193.4,170.6,192.1,170.6z M188.1,154.6l3.9,3.9l3.9-3.9l-3.9-3.9L188.1,154.6z"/>
		<path class="st5" d="M245.4,463.9c-1.3,0-2.6-0.5-3.5-1.5l-11-11c-2-2-2-5.1,0-7.1l11-11c2-2,5.1-2,7.1,0l11,11c2,2,2,5.1,0,7.1
			l-11,11C248,463.4,246.7,463.9,245.4,463.9z M241.5,447.9l3.9,3.9l3.9-3.9l-3.9-3.9L241.5,447.9z"/>
	</g>
	<path class="st2" d="M136.8,400.7c41.7,0,77.7-25,93.7-60.8l45.8,13.4c-2.5,8.9-3.7,18.1-3.7,27.5c0,56.6,46,102.6,102.6,102.6
		s102.6-46,102.6-102.6s-46-102.6-102.6-102.6c-21.3,0-41.8,6.5-59.2,18.8c-2.3,1.6-2.8,4.7-1.2,7c1.6,2.3,4.7,2.8,7,1.2
		c15.7-11.1,34.1-16.9,53.4-16.9c51.1,0,92.6,41.5,92.6,92.6s-41.5,92.6-92.6,92.6s-92.6-41.5-92.6-92.6c0-19.1,5.8-37.4,16.7-53
		c1.6-2.3,1-5.4-1.2-7s-5.4-1-7,1.2c-4.8,6.8-8.6,14.1-11.6,21.7l-45.4-13.3c3.4-10.2,5.3-21.1,5.3-32.5c0-26.2-9.9-50.2-26.1-68.3
		l51.6-35.1c18.8,23.8,47.9,39,80.5,39c24.4,0,48.1-8.7,66.6-24.6c18.3-15.7,30.6-37.3,34.6-61c0.5-2.7-1.4-5.3-4.1-5.8
		c-2.7-0.5-5.3,1.4-5.8,4.1c-3.6,21.3-14.7,40.9-31.2,55c-16.7,14.3-38.1,22.2-60.1,22.2c-51.1,0-92.6-41.5-92.6-92.6
		s41.5-92.6,92.6-92.6c44.9,0,83.2,32,91.1,76.1c0.5,2.7,3.1,4.5,5.8,4c2.7-0.5,4.5-3.1,4-5.8c-8.8-48.8-51.3-84.3-101-84.3
		c-56.6,0-102.6,46-102.6,102.6c0,20.4,6,39.5,16.3,55.5l-52.9,36c-18.3-16.8-42.6-27.1-69.4-27.1c-56.6,0-102.6,46-102.6,102.6
		S80.2,400.7,136.8,400.7L136.8,400.7z M136.8,205.5c51.1,0,92.6,41.5,92.6,92.6s-41.5,92.6-92.6,92.6s-92.6-41.5-92.6-92.6
		S85.7,205.5,136.8,205.5z"/>
</g>
</svg>
